Coordinates
version=1
nRows=14
nColumns=40
inDegrees=yes

Units are S.I. units (second, meters, Newtons, ...)
If the header above contains a line with 'inDegrees', this indicates whether rotational values are in degrees (yes) or radians (no).

endheader
time	pelvis_tilt	pelvis_list	pelvis_rotation	pelvis_tx	pelvis_ty	pelvis_tz	hip_flexion_r	hip_adduction_r	hip_rotation_r	knee_angle_r	knee_angle_r_beta	ankle_angle_r	subtalar_angle_r	mtp_angle_r	hip_flexion_l	hip_adduction_l	hip_rotation_l	knee_angle_l	knee_angle_l_beta	ankle_angle_l	subtalar_angle_l	mtp_angle_l	lumbar_extension	lumbar_bending	lumbar_rotation	arm_flex_r	arm_add_r	arm_rot_r	elbow_flex_r	pro_sup_r	wrist_flex_r	wrist_dev_r	arm_flex_l	arm_add_l	arm_rot_l	elbow_flex_l	pro_sup_l	wrist_flex_l	wrist_dev_l
      0.61500000	     -6.15358771	     -7.77801148	     -3.99674997	      0.22216054	      0.89338289	      0.22310430	    -13.16760198	      8.53571894	     -1.62979689	     15.08387087	      0.26326321	      4.02643725	    -10.56098649	      0.00000000	     33.29393559	    -11.42354044	    -18.80814679	     11.00118000	      0.19200681	      1.67335922	      7.57970273	      0.00000000	     -1.71808239	      4.43166472	     -1.54963405	     42.52418257	    -15.84891843	     42.52418257	     75.73217967	     44.92340866	      0.00000000	      0.00000000	     42.52418257	    -15.84891843	     42.52418257	     75.73217967	     44.92340866	      0.00000000	      0.00000000
      0.62000000	     -5.74312506	     -7.10877806	     -4.16348637	      0.23007846	      0.89418520	      0.22274780	    -13.57575175	      7.60641562	     -1.68260441	     15.85501059	      0.27672214	      3.23271107	    -10.59905485	      0.00000000	     32.47410341	    -10.85463960	    -18.93296435	     11.30562827	      0.19732044	      0.90696968	      6.56211971	      0.00000000	     -2.05279304	      3.68733100	     -0.80208453	     42.53240132	    -15.84426601	     42.53240132	     75.72433660	     44.92566723	      0.00000000	      0.00000000	     42.53240132	    -15.84426601	     42.53240132	     75.72433660	     44.92566723	      0.00000000	      0.00000000
      0.62500000	     -5.55713412	     -6.73716716	     -4.11529784	      0.23793609	      0.89455113	      0.22186501	    -13.78181513	      7.05809287	     -1.82947545	     16.52545004	      0.28842351	      2.13541827	    -10.81966364	      0.00000000	     32.24920595	    -10.54712871	    -18.90182066	     12.20406321	      0.21300109	      0.48668397	      5.77491645	      0.00000000	     -2.15158205	      3.23551456	     -0.61328417	     42.53382834	    -15.84345935	     42.53382834	     75.72298122	     44.92605296	      0.00000000	      0.00000000	     42.53382834	    -15.84345935	     42.53382834	     75.72298122	     44.92605296	      0.00000000	      0.00000000
      0.63000000	     -5.38153727	     -6.35559417	     -4.05063614	      0.24582095	      0.89497315	      0.22103725	    -13.92188569	      6.51592067	     -1.96989365	     17.29333755	      0.30182568	      0.97725444	    -11.12481450	      0.00000000	     32.01864923	    -10.22781326	    -18.86624954	     13.06656444	      0.22805457	      0.06812446	      5.06461121	      0.00000000	     -2.22496718	      2.73195451	     -0.41307602	     42.53512833	    -15.84272477	     42.53512833	     75.72174808	     44.92640276	      0.00000000	      0.00000000	     42.53512833	    -15.84272477	     42.53512833	     75.72174808	     44.92640276	      0.00000000	      0.00000000
      0.63500000	     -5.21203522	     -5.95367850	     -3.98471374	      0.25366952	      0.89547427	      0.22016073	    -13.98469876	      5.95057022	     -2.16274276	     18.15673102	      0.31689474	     -0.27525217	    -11.52181482	      0.00000000	     31.78591128	     -9.88820848	    -18.82998717	     13.91737426	      0.24290400	     -0.33266397	      4.39684451	      0.00000000	     -2.29742121	      2.22824790	     -0.20786241	     42.53651718	    -15.84194024	     42.53651718	     75.72043221	     44.92677487	      0.00000000	      0.00000000	     42.53651718	    -15.84194024	     42.53651718	     75.72043221	     44.92677487	      0.00000000	      0.00000000
      0.64000000	     -5.05836754	     -5.54322201	     -3.90038225	      0.26150360	      0.89602406	      0.21927461	    -13.96845536	      5.37863681	     -2.40133353	     19.10930676	      0.33352032	     -1.62427645	    -11.97758468	      0.00000000	     31.56166656	     -9.53146286	    -18.77144155	     14.75270780	      0.25748332	     -0.69276958	      3.78437564	      0.00000000	     -2.35224278	      1.72892187	     -0.00078980	     42.53804481	    -15.84107764	     42.53804481	     75.71898669	     44.92718230	      0.00000000	      0.00000000	     42.53804481	    -15.84107764	     42.53804481	     75.71898669	     44.92718230	      0.00000000	      0.00000000
      0.64500000	     -4.97899972	     -5.11514835	     -3.81538802	      0.26936142	      0.89650991	      0.21840224	    -13.78998979	      4.79204539	     -2.70729606	     20.20545133	      0.35265165	     -3.00219367	    -12.55708757	      0.00000000	     31.38578927	     -9.14747631	    -18.68417231	     15.52917087	      0.27103516	     -1.02934591	      3.25852180	      0.00000000	     -2.31215672	      1.20808116	      0.23806254	     42.54084221	    -15.83949892	     42.54084221	     75.71634483	     44.92792305	      0.00000000	      0.00000000	     42.54084221	    -15.83949892	     42.54084221	     75.71634483	     44.92792305	      0.00000000	      0.00000000
      0.65000000	     -4.86478696	     -4.72818426	     -3.67784860	      0.27721902	      0.89708176	      0.21739619	    -13.61747161	      4.24004775	     -3.08845399	     21.32087001	      0.37211938	     -4.50149626	    -13.04597080	      0.00000000	     31.18980335	     -8.77280642	    -18.55088449	     16.33551518	      0.28510852	     -1.25146583	      2.73054799	      0.00000000	     -2.31454762	      0.74786219	      0.42634912	     42.54335257	    -15.83808321	     42.54335257	     75.71397983	     44.92858204	      0.00000000	      0.00000000	     42.54335257	    -15.83808321	     42.54335257	     75.71397983	     44.92858204	      0.00000000	      0.00000000
      0.65500000	     -4.70813522	     -4.38314797	     -3.50938957	      0.28505916	      0.89777539	      0.21624923	    -13.46331031	      3.72625690	     -3.45788798	     22.45679814	      0.39194507	     -6.10818638	    -13.44868686	      0.00000000	     30.93516131	     -8.40357760	    -18.40712441	     17.11266421	      0.29867233	     -1.32854060	      2.20621893	      0.00000000	     -2.37489504	      0.34841440	      0.55897576	     42.54482001	    -15.83725610	     42.54482001	     75.71259993	     44.92896475	      0.00000000	      0.00000000	     42.54482001	    -15.83725610	     42.54482001	     75.71259993	     44.92896475	      0.00000000	      0.00000000
      0.66000000	     -4.63887740	     -3.98934700	     -3.32985459	      0.29287508	      0.89834907	      0.21518547	    -13.10152446	      3.15434844	     -3.98315415	     23.79128811	      0.41523631	     -7.73418473	    -14.07872358	      0.00000000	     30.74506582	     -7.97314453	    -18.20883156	     17.83176436	      0.31122300	     -1.42428647	      1.77729527	      0.00000000	     -2.32811460	     -0.12222819	      0.68716450	     42.54679354	    -15.83614424	     42.54679354	     75.71074701	     44.92947658	      0.00000000	      0.00000000	     42.54679354	    -15.83614424	     42.54679354	     75.71074701	     44.92947658	      0.00000000	      0.00000000
      0.66500000	     -4.76532763	     -3.53176490	     -3.13040014	      0.30078087	      0.89859071	      0.21401240	    -12.40004227	      2.46441019	     -4.72170448	     25.39509133	      0.44322796	     -9.15805202	    -14.51248253	      0.00000000	     30.72041630	     -7.43002872	    -17.94793282	     18.45850682	      0.32216172	     -1.48364891	      1.24115175	      0.00000000	     -2.02511701	     -0.63741370	      0.73025673	     42.55300100	    -15.83265086	     42.55300100	     75.70494103	     44.93106443	      0.00000000	      0.00000000	     42.55300100	    -15.83265086	     42.55300100	     75.70494103	     44.93106443	      0.00000000	      0.00000000
      0.67000000	     -4.69620571	     -3.10953364	     -2.89374922	      0.30862084	      0.89920242	      0.21273755	    -11.93274821	      1.81492386	     -5.37454980	     26.89294471	      0.46937043	    -10.82920761	    -15.08105096	      0.00000000	     30.45711818	     -6.88793318	    -17.74794091	     19.03682807	      0.33225533	     -1.41242943	      0.83239874	      0.00000000	     -1.98001562	     -1.10714545	      0.77170489	     42.55653157	    -15.83066638	     42.55653157	     75.70165262	     44.93195417	      0.00000000	      0.00000000	     42.55653157	    -15.83066638	     42.55653157	     75.70165262	     44.93195417	      0.00000000	      0.00000000
      0.67500000	     -4.69712160	     -2.62946534	     -2.69984852	      0.31643571	      0.89969189	      0.21157500	    -11.26884952	      1.04489675	     -6.13621310	     28.61430485	      0.49941383	    -12.38361837	    -15.52051260	      0.00000000	     30.19561661	     -6.27785947	    -17.53449669	     19.48892924	      0.34014598	     -1.30624691	      0.32404020	      0.00000000	     -1.83225633	     -1.67534234	      0.76368344	     42.56167907	    -15.82777656	     42.56167907	     75.69687812	     44.93323218	      0.00000000	      0.00000000	     42.56167907	    -15.82777656	     42.56167907	     75.69687812	     44.93323218	      0.00000000	      0.00000000
      0.68000000	     -4.63938890	     -2.15163888	     -2.47302247	      0.32421433	      0.90028229	      0.21028884	    -10.65448728	      0.26560136	     -6.89136784	     30.33755902	      0.52949029	    -14.02354989	    -16.13308803	      0.00000000	     29.85433702	     -5.64051324	    -17.37734155	     19.90197419	      0.34735498	     -1.14871804	     -0.08494515	      0.00000000	     -1.77595245	     -2.20035929	      0.77883387	     42.56533712	    -15.82572530	     42.56533712	     75.69349857	     44.93412767	      0.00000000	      0.00000000	     42.56533712	    -15.82572530	     42.56533712	     75.69349857	     44.93412767	      0.00000000	      0.00000000
